<svg width="192" height="192" viewBox="0 0 192 192" fill="#1e2124" xmlns="http://www.w3.org/2000/svg">
<rect width="192" height="192" fill="#282B30"/>
<path d="M42.4318 84.1818C42.2614 82.7424 41.5701 81.625 40.358 80.8295C39.1458 80.0341 37.6591 79.6364 35.8977 79.6364C34.6098 79.6364 33.483 79.8447 32.517 80.2614C31.5606 80.678 30.8125 81.2509 30.2727 81.9801C29.7424 82.7093 29.4773 83.5379 29.4773 84.4659C29.4773 85.2424 29.6619 85.91 30.0312 86.4688C30.41 87.018 30.893 87.4773 31.4801 87.8466C32.0672 88.2064 32.6828 88.5047 33.3267 88.7415C33.9706 88.9687 34.5625 89.1534 35.1023 89.2955L38.0568 90.0909C38.8144 90.2898 39.6572 90.5644 40.5852 90.9148C41.5227 91.2652 42.4176 91.7434 43.2699 92.3494C44.1316 92.946 44.8419 93.7131 45.4006 94.6506C45.9593 95.5881 46.2386 96.7386 46.2386 98.1023C46.2386 99.6742 45.8267 101.095 45.0028 102.364C44.1884 103.633 42.9953 104.641 41.4233 105.389C39.8608 106.137 37.9621 106.511 35.7273 106.511C33.6439 106.511 31.84 106.175 30.3153 105.503C28.8002 104.83 27.607 103.893 26.7358 102.69C25.8741 101.488 25.3864 100.091 25.2727 98.5H28.9091C29.0038 99.5985 29.3731 100.508 30.017 101.227C30.6705 101.937 31.4943 102.468 32.4886 102.818C33.4924 103.159 34.572 103.33 35.7273 103.33C37.072 103.33 38.2794 103.112 39.3494 102.676C40.4195 102.231 41.267 101.616 41.892 100.83C42.517 100.034 42.8295 99.1061 42.8295 98.0455C42.8295 97.0795 42.5597 96.2936 42.0199 95.6875C41.4801 95.0814 40.7699 94.589 39.8892 94.2102C39.0085 93.8314 38.0568 93.5 37.0341 93.2159L33.4545 92.1932C31.1818 91.5398 29.3826 90.607 28.0568 89.3949C26.7311 88.1828 26.0682 86.5966 26.0682 84.6364C26.0682 83.0076 26.5085 81.5871 27.3892 80.375C28.2794 79.1534 29.4725 78.2064 30.9688 77.5341C32.4744 76.8523 34.1553 76.5114 36.0114 76.5114C37.8864 76.5114 39.553 76.8475 41.0114 77.5199C42.4697 78.1828 43.625 79.0919 44.4773 80.2472C45.339 81.4025 45.7936 82.714 45.8409 84.1818H42.4318ZM65.326 97.0795V84.1818H68.6783V106H65.326V102.307H65.0987C64.5874 103.415 63.7919 104.357 62.7124 105.134C61.6328 105.901 60.2692 106.284 58.6214 106.284C57.2578 106.284 56.0457 105.986 54.9851 105.389C53.9245 104.783 53.0911 103.874 52.4851 102.662C51.879 101.44 51.576 99.9015 51.576 98.0455V84.1818H54.9283V97.8182C54.9283 99.4091 55.3733 100.678 56.2635 101.625C57.1631 102.572 58.3089 103.045 59.701 103.045C60.5343 103.045 61.3819 102.832 62.2436 102.406C63.1148 101.98 63.844 101.327 64.4311 100.446C65.0277 99.5653 65.326 98.4432 65.326 97.0795ZM83.0568 106.455C81.2386 106.455 79.6335 105.995 78.2415 105.077C76.8494 104.149 75.7604 102.842 74.9744 101.156C74.1884 99.4612 73.7955 97.4583 73.7955 95.1477C73.7955 92.8561 74.1884 90.8674 74.9744 89.1818C75.7604 87.4962 76.8542 86.1941 78.2557 85.2756C79.6572 84.357 81.2765 83.8977 83.1136 83.8977C84.5341 83.8977 85.6563 84.1345 86.4801 84.608C87.3134 85.072 87.9479 85.6023 88.3835 86.1989C88.8286 86.786 89.1742 87.2689 89.4205 87.6477H89.7045V76.9091H93.0568V106H89.8182V102.648H89.4205C89.1742 103.045 88.8239 103.547 88.3693 104.153C87.9148 104.75 87.2661 105.285 86.4233 105.759C85.5805 106.223 84.4583 106.455 83.0568 106.455ZM83.5114 103.443C84.8561 103.443 85.9924 103.093 86.9205 102.392C87.8485 101.682 88.554 100.702 89.0369 99.4517C89.5199 98.1922 89.7614 96.7386 89.7614 95.0909C89.7614 93.4621 89.5246 92.0369 89.0511 90.8153C88.5777 89.5843 87.8769 88.6278 86.9489 87.946C86.0208 87.2547 84.875 86.9091 83.5114 86.9091C82.0909 86.9091 80.9072 87.2737 79.9602 88.0028C79.0227 88.7225 78.3172 89.7027 77.8438 90.9432C77.3797 92.1742 77.1477 93.5568 77.1477 95.0909C77.1477 96.6439 77.3845 98.0549 77.858 99.3239C78.3409 100.583 79.0511 101.587 79.9886 102.335C80.9356 103.074 82.1098 103.443 83.5114 103.443ZM108.526 106.455C106.556 106.455 104.828 105.986 103.341 105.048C101.864 104.111 100.708 102.799 99.875 101.114C99.0511 99.428 98.6392 97.4583 98.6392 95.2045C98.6392 92.9318 99.0511 90.9479 99.875 89.2528C100.708 87.5578 101.864 86.2415 103.341 85.304C104.828 84.3665 106.556 83.8977 108.526 83.8977C110.495 83.8977 112.219 84.3665 113.696 85.304C115.183 86.2415 116.338 87.5578 117.162 89.2528C117.995 90.9479 118.412 92.9318 118.412 95.2045C118.412 97.4583 117.995 99.428 117.162 101.114C116.338 102.799 115.183 104.111 113.696 105.048C112.219 105.986 110.495 106.455 108.526 106.455ZM108.526 103.443C110.022 103.443 111.253 103.06 112.219 102.293C113.185 101.526 113.9 100.517 114.364 99.267C114.828 98.017 115.06 96.6629 115.06 95.2045C115.06 93.7462 114.828 92.3873 114.364 91.1278C113.9 89.8684 113.185 88.8504 112.219 88.0739C111.253 87.2973 110.022 86.9091 108.526 86.9091C107.029 86.9091 105.798 87.2973 104.832 88.0739C103.866 88.8504 103.152 89.8684 102.688 91.1278C102.223 92.3873 101.991 93.7462 101.991 95.2045C101.991 96.6629 102.223 98.017 102.688 99.267C103.152 100.517 103.866 101.526 104.832 102.293C105.798 103.06 107.029 103.443 108.526 103.443ZM126.654 98.0455L126.597 93.8977H127.279L136.825 84.1818H140.972L130.802 94.4659H130.518L126.654 98.0455ZM123.529 106V76.9091H126.881V106H123.529ZM137.393 106L128.87 95.2045L131.256 92.875L141.654 106H137.393ZM159.037 97.0795V84.1818H162.389V106H159.037V102.307H158.81C158.298 103.415 157.503 104.357 156.423 105.134C155.344 105.901 153.98 106.284 152.332 106.284C150.969 106.284 149.757 105.986 148.696 105.389C147.635 104.783 146.802 103.874 146.196 102.662C145.59 101.44 145.287 99.9015 145.287 98.0455V84.1818H148.639V97.8182C148.639 99.4091 149.084 100.678 149.974 101.625C150.874 102.572 152.02 103.045 153.412 103.045C154.245 103.045 155.093 102.832 155.955 102.406C156.826 101.98 157.555 101.327 158.142 100.446C158.739 99.5653 159.037 98.4432 159.037 97.0795Z" fill="#7289DA"/>
</svg>
